<?xml version="1.0" encoding="UTF-8"?>
<svg version="1.1" xmlns="http://www.w3.org/2000/svg" width="256" height="256">
<path d="M0 0 C84.48 0 168.96 0 256 0 C256 84.48 256 168.96 256 256 C171.52 256 87.04 256 0 256 C0 171.52 0 87.04 0 0 Z " fill="#072727" transform="translate(0,0)"/>
<path d="M0 0 C84.48 0 168.96 0 256 0 C256 84.48 256 168.96 256 256 C171.52 256 87.04 256 0 256 C0 171.52 0 87.04 0 0 Z M118 15.04296875 C116.87787109 15.6978125 115.75574219 16.35265625 114.59960938 17.02734375 C113.39966759 17.74727584 112.19979962 18.467331 111 19.1875 C109.74379855 19.92611434 108.48662237 20.66307322 107.22851562 21.3984375 C104.68267297 22.88782626 102.14077735 24.38361959 99.6015625 25.88427734 C94.60798529 28.82765274 89.5555311 31.66477304 84.5 34.5 C75.60842614 39.512726 66.73810329 44.56217156 57.875 49.625 C56.95980591 50.14743286 56.95980591 50.14743286 56.02612305 50.68041992 C54.2852867 51.67434098 52.54497749 52.66918513 50.8046875 53.6640625 C49.30397705 54.52185303 49.30397705 54.52185303 47.77294922 55.39697266 C46.85787598 55.92597168 45.94280273 56.4549707 45 57 C43.64479248 57.75289307 43.64479248 57.75289307 42.26220703 58.52099609 C39.7469028 59.95402697 39.7469028 59.95402697 38 63 C37.69266557 64.94215973 37.69266557 64.94215973 37.72584534 67.08554077 C37.71587021 67.91544022 37.70589508 68.74533966 37.69561768 69.60038757 C37.694953 70.50746964 37.69428833 71.4145517 37.69360352 72.34912109 C37.68528 73.3071312 37.67695648 74.2651413 37.66838074 75.25218201 C37.64424254 78.42597492 37.63550403 81.59956247 37.62890625 84.7734375 C37.61994303 86.97677677 37.61082124 89.18011539 37.60154724 91.38345337 C37.58504443 96.00532512 37.57735473 100.62712432 37.57446289 105.24902344 C37.56907697 111.17323623 37.53139319 117.09676785 37.48571873 123.02078819 C37.45598594 127.57268772 37.44874015 132.12442246 37.44773674 136.67641068 C37.44352716 138.86052191 37.43106345 141.04463331 37.41021919 143.22864914 C37.38338319 146.28363987 37.38810745 149.3370417 37.40063477 152.39208984 C37.38580048 153.29512344 37.37096619 154.19815704 37.35568237 155.1285553 C37.407622 159.57337097 37.52634226 161.40285157 40.37200928 164.99043274 C42.99148569 166.9934893 45.57298469 168.71936538 48.44921875 170.33203125 C49.96805664 171.18764648 49.96805664 171.18764648 51.51757812 172.06054688 C52.56365234 172.63869141 53.60972656 173.21683594 54.6875 173.8125 C56.27401367 174.7087207 56.27401367 174.7087207 57.89257812 175.62304688 C62.67636826 178.7026547 62.67636826 178.7026547 68 180 C68 180.66 68 181.32 68 182 C67.195625 182.04125 66.39125 182.0825 65.5625 182.125 C57.84409464 184.02074868 51.32698645 189.39772889 47 196 C42.858543 203.30238213 41.71915737 210.7087439 43 219 C46.25306226 228.56377314 51.59957189 235.81225922 60.48287964 240.65196228 C66.36516245 243.50405716 71.57113255 243.70138074 78.02392578 243.63110352 C79.18296417 243.63825882 80.34200256 243.64541412 81.53616333 243.65278625 C85.33962284 243.66959511 89.1418909 243.65031687 92.9453125 243.62890625 C95.60230061 243.62973555 98.25924829 243.63214244 100.91622925 243.63621521 C106.47244811 243.64072108 112.02832866 243.62495758 117.58447266 243.59692383 C123.99103448 243.56484675 130.39698759 243.56490458 136.8035928 243.5821386 C142.99198099 243.59804622 149.18014785 243.59124513 155.36852646 243.57420158 C157.99111306 243.56902824 160.61371718 243.56949124 163.23630142 243.57574654 C166.90286951 243.58121059 170.56841212 243.56078404 174.23486328 243.53344727 C175.31247925 243.53997314 176.39009521 243.54649902 177.50036621 243.55322266 C185.06621574 243.45754874 190.43495349 242.1799718 196.2421875 237 C196.78101563 236.34 197.31984375 235.68 197.875 235 C198.70644531 234.01 198.70644531 234.01 199.5546875 233 C203.8880612 227.00354774 203.79896571 221.24168922 203 214 C200.70369796 206.46456224 195.7007001 202.68604327 189 199 C186.35541621 197.67770811 184.32238699 197.90322806 181.375 197.9375 C180.37210938 197.94652344 179.36921875 197.95554688 178.3359375 197.96484375 C177.56507813 197.97644531 176.79421875 197.98804688 176 198 C174.92474806 195.34771188 173.90543849 192.71631546 173 190 C173.78012451 189.55720703 174.56024902 189.11441406 175.36401367 188.65820312 C178.3266557 186.97514749 181.28808425 185.28999223 184.2487793 183.60351562 C185.51752314 182.88134938 186.7867118 182.15996394 188.05639648 181.43945312 C194.80735517 177.6077556 201.53412672 173.73760481 208.17578125 169.71875 C209.20227783 169.09935547 210.22877441 168.47996094 211.28637695 167.84179688 C216.0406256 164.90296483 216.0406256 164.90296483 218.37835217 160.07374191 C218.54402915 157.55953662 218.57463902 155.07295294 218.56518555 152.55322266 C218.5770137 151.59667282 218.58884186 150.64012299 218.60102844 149.65458679 C218.63394036 146.49084574 218.6368723 143.32796354 218.63671875 140.1640625 C218.64703155 137.96454515 218.65809438 135.76503121 218.6698761 133.56552124 C218.68931973 128.95374703 218.6927259 124.34227615 218.6862793 119.73046875 C218.68028337 113.82285798 218.72450788 107.91681857 218.78216839 102.00953102 C218.819154 97.4661142 218.82407105 92.92307657 218.81989479 88.37952805 C218.82276741 86.20181311 218.83684798 84.0240829 218.86237144 81.84651566 C218.89434193 78.79845286 218.88179886 75.75363685 218.8581543 72.70556641 C218.87703705 71.80769913 218.8959198 70.90983185 218.91537476 69.98475647 C218.84907497 66.38868102 218.79299382 63.97282185 216.46983433 61.12283707 C213.36465837 58.41503503 210.00105571 56.18814042 206.34765625 54.28125 C205.50178955 53.83160889 204.65592285 53.38196777 203.78442383 52.91870117 C202.88618896 52.45052979 201.9879541 51.9823584 201.0625 51.5 C193.04273263 47.22579868 185.13952236 42.80517011 177.3125 38.1875 C165.22814237 31.07330563 152.99727948 24.23978557 140.69482422 17.51074219 C138.46419525 16.26023194 136.31860208 14.93814737 134.16015625 13.5703125 C128.15252625 10.58506249 123.57928645 11.73162955 118 15.04296875 Z " fill="#FBFAF7" transform="translate(0,0)"/>
<path d="M0 0 C9.85454426 5.69527076 13.59055774 13.46691859 17 24 C18.010625 23.67 19.02125 23.34 20.0625 23 C27.16534411 21.02145224 33.39119301 21.90029407 40 25 C45.50601299 28.4723579 48.78662547 32.89603546 51 39 C51 39.66 51 40.32 51 41 C51.9590625 40.505 51.9590625 40.505 52.9375 40 C57.68746214 38.44899195 62.4218207 37.77670509 67.06640625 39.98046875 C70.41055775 42.24946507 72.51508427 44.16863724 74 48 C74.56465681 52.50992128 74.55605009 56.65377346 72.8125 60.875 C70.25864611 63.86917353 67.5292376 66.2353812 64 68 C62.49764672 68.09852205 60.99101369 68.13503588 59.48544312 68.14044189 C58.0598407 68.14900711 58.0598407 68.14900711 56.60543823 68.15774536 C55.55921295 68.15886322 54.51298767 68.15998108 53.43505859 68.16113281 C52.33570984 68.16609772 51.23636108 68.17106262 50.10369873 68.17617798 C46.4519387 68.19083066 42.80022215 68.1976079 39.1484375 68.203125 C36.6145528 68.20887529 34.08066812 68.21463304 31.54678345 68.22039795 C26.90616822 68.22957186 22.26556609 68.23586762 17.62494409 68.2388947 C10.80595556 68.24336743 3.98716827 68.26087603 -2.8317591 68.2898953 C-8.74454208 68.31418 -14.65727537 68.32184225 -20.57011032 68.32357025 C-23.08106962 68.32659469 -25.59202812 68.33461616 -28.10295486 68.34775543 C-31.62168754 68.36484906 -35.13993382 68.36292688 -38.65869141 68.35644531 C-39.6927713 68.3656601 -40.7268512 68.37487488 -41.79226685 68.3843689 C-49.0446531 68.34261475 -54.39541728 67.17951513 -60.6875 63.375 C-66.10998757 57.80595871 -68.33112736 52.77130492 -68.625 44.9375 C-68.37067475 38.71991699 -67.36897464 34.50485184 -63 30 C-57.82110622 25.41557068 -53.87427988 22.84578857 -46.8125 22.9375 C-45.91144531 22.94652344 -45.01039062 22.95554688 -44.08203125 22.96484375 C-43.39496094 22.97644531 -42.70789063 22.98804688 -42 23 C-41.95875 22.21625 -41.9175 21.4325 -41.875 20.625 C-39.76423552 11.88040431 -34.2676148 5.12004174 -27 0 C-18.40076356 -4.9365987 -8.86088697 -3.85760382 0 0 Z " fill="#A7D5E1" transform="translate(120,167)"/>
<path d="M0 0 C1.76365645 1.14873766 3.44293334 2.36742045 5.12060547 3.63867188 C9.37284057 6.69650406 14.02229121 9.14960995 18.5625 11.75 C20.64128633 12.97283478 22.71940195 14.19681042 24.796875 15.421875 C32.05149263 19.66077788 39.43281116 23.64956935 46.83544922 27.62231445 C54.36240505 31.66373009 61.80604194 35.8234813 69.1875 40.125 C67.97434721 43.76445838 67.21387241 43.95747142 63.9375 45.734375 C63.03201416 46.23380615 62.12652832 46.7332373 61.19360352 47.24780273 C60.20158936 47.78477783 59.2095752 48.32175293 58.1875 48.875 C49.608819 53.61615059 41.13662654 58.48923932 32.75 63.5625 C30.67329567 64.81139512 28.59647208 66.06009196 26.51953125 67.30859375 C23.28527265 69.25499365 20.05420628 71.20611592 16.82958984 73.16845703 C13.54012112 75.16741629 10.23998379 77.14763814 6.9375 79.125 C5.93146729 79.7430249 4.92543457 80.3610498 3.88891602 80.99780273 C2.95104248 81.55540283 2.01316895 82.11300293 1.046875 82.6875 C0.22670898 83.18378906 -0.59345703 83.68007812 -1.43847656 84.19140625 C-4.43718653 85.37066035 -5.76845793 85.12175794 -8.8125 84.125 C-10.69566732 83.22886972 -12.54433786 82.25848395 -14.36328125 81.23828125 C-15.4419043 80.63677246 -16.52052734 80.03526367 -17.63183594 79.41552734 C-18.79638227 78.75646456 -19.96076619 78.09711471 -21.125 77.4375 C-22.33736343 76.75696481 -23.54993155 76.07679417 -24.76269531 75.39697266 C-33.55592811 70.4549973 -42.28011449 65.39601956 -50.9777832 60.2878418 C-61.51537067 54.10271691 -72.15747448 48.10492262 -82.8125 42.125 C-79.44093536 39.30490241 -76.07982177 37.01944165 -72.2265625 34.91015625 C-71.14262207 34.31307861 -70.05868164 33.71600098 -68.94189453 33.10083008 C-67.78544434 32.46943115 -66.62899414 31.83803223 -65.4375 31.1875 C-63.6075085 30.18095835 -61.77855879 29.17254166 -59.94967651 28.16398621 C-58.70933446 27.48005938 -57.46871196 26.79664094 -56.22781372 26.11372375 C-51.38955322 23.44974566 -46.56941008 20.75493896 -41.76293945 18.03393555 C-39.88551863 16.97315142 -38.00384283 15.91986152 -36.11791992 14.87426758 C-31.35036606 12.21571989 -26.7379301 9.44902351 -22.20703125 6.40234375 C-7.21782735 -3.46943875 -7.21782735 -3.46943875 0 0 Z " fill="#60AA55" transform="translate(133.8125,21.875)"/>
<path d="M0 0 C4.20258818 1.35700414 7.89780675 2.89300784 11.75390625 5.0546875 C12.84485596 5.66328613 13.93580566 6.27188477 15.05981445 6.89892578 C16.22749888 7.55739986 17.39505781 8.21609654 18.5625 8.875 C19.77740669 9.55615011 20.99249684 10.23697311 22.20776367 10.91748047 C25.8096419 12.93712648 29.40526677 14.96766356 33 17 C33.97646484 17.55107422 34.95292969 18.10214844 35.95898438 18.66992188 C46.11457615 24.40940319 56.20057635 30.26419495 66.25 36.1875 C67.69016479 37.03562256 67.69016479 37.03562256 69.15942383 37.90087891 C70.04009521 38.42214355 70.9207666 38.9434082 71.828125 39.48046875 C72.6109082 39.94348389 73.39369141 40.40649902 74.20019531 40.88354492 C76 42 76 42 77 43 C77.09268999 44.35094982 77.11747326 45.70667091 77.11352539 47.06079102 C77.11341209 48.35201622 77.11341209 48.35201622 77.11329651 49.66932678 C77.10813522 50.60473801 77.10297394 51.54014923 77.09765625 52.50390625 C77.0962413 53.45692123 77.09482635 54.40993622 77.09336853 55.39183044 C77.08775152 58.44875165 77.07519616 61.50560077 77.0625 64.5625 C77.05748719 66.62955624 77.05292391 68.69661362 77.04882812 70.76367188 C77.03777656 75.84247588 77.02050055 80.9212257 77 86 C76.39114456 85.85993027 75.78228912 85.71986053 75.15498352 85.57554626 C74.35142929 85.39326981 73.54787506 85.21099335 72.7199707 85.02319336 C71.92549026 84.84187363 71.13100983 84.66055389 70.31245422 84.47373962 C60.14551776 82.39089595 50.95023226 83.84289956 42 89 C36.50215883 92.85123317 32.64997259 97.41097947 29 103 C25.30897778 101.61022737 21.9452522 99.9403208 18.515625 97.99609375 C17.49855469 97.42052734 16.48148438 96.84496094 15.43359375 96.25195312 C14.38300781 95.65318359 13.33242188 95.05441406 12.25 94.4375 C11.18394531 93.83486328 10.11789063 93.23222656 9.01953125 92.61132812 C1.13900267 88.13900267 1.13900267 88.13900267 0 87 C-0.09514592 84.29161914 -0.12554932 81.60881487 -0.11352539 78.90014648 C-0.11367142 78.05143982 -0.11381744 77.20273315 -0.1139679 76.32830811 C-0.11326848 73.50921109 -0.10547478 70.69017929 -0.09765625 67.87109375 C-0.09579217 65.92196183 -0.09436822 63.97282945 -0.09336853 62.0236969 C-0.08954255 56.88293168 -0.07971159 51.74219453 -0.06866455 46.60144043 C-0.05845215 41.35994852 -0.05387128 36.1184521 -0.04882812 30.87695312 C-0.03808939 20.58462306 -0.02101201 10.29231386 0 0 Z " fill="#55994F" transform="translate(46,72)"/>
<path d="M0 0 C0.24782044 5.72884612 0.42891691 11.45455751 0.54931641 17.1875 C0.59950961 19.13564397 0.66768562 21.08341293 0.75439453 23.03027344 C1.45341224 39.13235205 1.45341224 39.13235205 -1.87939453 43.41503906 C-4.52549353 45.00783652 -7.08545952 45.98815025 -10 47 C-11.81585172 48.01438144 -13.61027427 49.06795068 -15.3828125 50.15625 C-17.29647157 51.27152585 -19.21055094 52.38608076 -21.125 53.5 C-23.24484217 54.73428827 -25.36463232 55.96866587 -27.484375 57.203125 C-28.56138672 57.83025391 -29.63839844 58.45738281 -30.74804688 59.10351562 C-33.92318958 60.95520545 -37.09496355 62.81252419 -40.265625 64.671875 C-49.61355472 70.14987907 -58.97230291 75.60145099 -68.4375 80.875 C-69.19530762 81.29813477 -69.95311523 81.72126953 -70.73388672 82.15722656 C-75.87386303 85 -75.87386303 85 -77 85 C-77 71.47 -77 57.94 -77 44 C-73.514375 42.040625 -70.02875 40.08125 -66.4375 38.0625 C-59.2342718 34.00049516 -52.06813391 29.90115269 -45.00463867 25.6003418 C-37.56676718 21.09257164 -30.00141709 16.8010582 -22.44799805 12.49072266 C-16.22543205 8.92349004 -10.13860757 5.22610821 -4.15332031 1.27197266 C-2 0 -2 0 0 0 Z " fill="#206C49" transform="translate(210,70)"/>
<path d="M0 0 C0.22315871 5.30164051 0.38608525 10.60052943 0.49438477 15.90576172 C0.53953797 17.70832952 0.60088058 19.51056956 0.67895508 21.31201172 C1.30576877 36.15069934 1.30576877 36.15069934 -1.62817383 40.3059082 C-4.00898053 41.9212546 -6.33015788 42.93254226 -9 44 C-10.91677737 45.10954591 -12.81864644 46.24513571 -14.70703125 47.40234375 C-16.74050932 48.58362276 -18.77569247 49.76197108 -20.8125 50.9375 C-21.81603516 51.51951172 -22.81957031 52.10152344 -23.85351562 52.70117188 C-25.87480804 53.87344359 -27.89905466 55.04063677 -29.92626953 56.20263672 C-32.05204152 57.44568147 -34.15625108 58.72607482 -36.24169922 60.03564453 C-37.81395264 61.00993408 -37.81395264 61.00993408 -39.41796875 62.00390625 C-40.35793701 62.60146729 -41.29790527 63.19902832 -42.26635742 63.81469727 C-46.41484195 65.61347304 -49.13728282 64.53640966 -53.19921875 62.9375 C-56.40222807 61.86536299 -58.95007704 61.93366367 -62.3125 62 C-65.32421875 61.83203125 -65.32421875 61.83203125 -68 61 C-70.8561761 57.65766627 -72.40191466 54.06419546 -74 50 C-74.65330067 48.66006699 -75.31453404 47.32376684 -76 46 C-76.66 46 -77.32 46 -78 46 C-78 45.34 -78 44.68 -78 44 C-77.195625 43.58492187 -76.39125 43.16984375 -75.5625 42.7421875 C-66.30234772 37.90822057 -57.27560798 32.71276547 -48.26733398 27.42626953 C-40.70552164 22.98885545 -33.10806544 18.61951589 -25.48681641 14.28515625 C-18.97146804 10.57287901 -12.50152109 6.7879099 -6.06274414 2.94433594 C-1.10530693 0 -1.10530693 0 0 0 Z " fill="#206C49" transform="translate(210,120)"/>
<path d="M0 0 C2.413125 1.27875 4.82625 2.5575 7.3125 3.875 C8.06829346 4.27444824 8.82408691 4.67389648 9.6027832 5.08544922 C10.20437256 5.40529785 10.80596191 5.72514648 11.42578125 6.0546875 C12.34484253 6.54171143 12.34484253 6.54171143 13.2824707 7.03857422 C14.90258648 7.94547058 16.45515434 8.9701029 18 10 C18.34057617 12.52197266 18.34057617 12.52197266 18.29296875 15.6640625 C18.28330078 16.78554687 18.27363281 17.90703125 18.26367188 19.0625 C18.23853516 20.238125 18.21339844 21.41375 18.1875 22.625 C18.16719727 24.40003906 18.16719727 24.40003906 18.14648438 26.2109375 C18.11103916 29.14107539 18.06162769 32.07031459 18 35 C11.96483673 31.72163971 5.9642882 28.40816469 0 25 C0 16.75 0 8.5 0 0 Z " fill="#63AB58" transform="translate(64,105)"/>
<path d="M0 0 C0.75 2.25 0.75 2.25 1 5 C-1.77274682 8.32929126 -4.95367436 10.32948616 -8.69140625 12.4609375 C-10.35719727 13.41613281 -10.35719727 13.41613281 -12.05664062 14.390625 C-13.22522614 15.05214389 -14.39384607 15.71360198 -15.5625 16.375 C-16.69236328 17.02210937 -17.82222656 17.66921875 -18.98632812 18.3359375 C-21.23240956 19.6186737 -23.48318856 20.89322216 -25.73876953 22.15917969 C-27.87762107 23.36646675 -30.00427758 24.59567522 -32.11669922 25.84863281 C-33.55746826 26.68539551 -33.55746826 26.68539551 -35.02734375 27.5390625 C-35.869021 28.03873535 -36.71069824 28.5384082 -37.57788086 29.05322266 C-40.48644374 30.19014503 -42.05024134 29.88094722 -45 29 C-45.375 26.8125 -45.375 26.8125 -45 24 C-40.638709 19.84346445 -35.85330145 17.07062296 -30.5625 14.25 C-25.87589676 11.71599813 -21.21705408 9.17849366 -16.69921875 6.3515625 C-16.03140381 5.93487305 -15.36358887 5.51818359 -14.67553711 5.08886719 C-13.42584724 4.30105712 -12.18267431 3.50277656 -10.94750977 2.69238281 C-7.13745682 0.30112256 -4.48250001 -0.42108333 0 0 Z " fill="#052727" transform="translate(187,103)"/>
<path d="M0 0 C7.98421172 3.19368469 16.63509058 7.0793255 23 13 C24.49513355 17.03338352 24.27574408 19.92864389 23 24 C21.989375 23.67 20.97875 23.34 19.9375 23 C13.42830568 21.32856131 6.66044928 21.88106341 0 22 C0 14.74 0 7.48 0 0 Z " fill="#48874D" transform="translate(99,134)"/>
<path d="M0 0 C0 3.1875 0 3.1875 -1 7 C-2.50708008 8.26171875 -2.50708008 8.26171875 -4.45703125 9.375 C-5.54105225 10.0086145 -5.54105225 10.0086145 -6.64697266 10.6550293 C-7.42347168 11.09886963 -8.1999707 11.54270996 -9 12 C-10.5883652 12.96298959 -12.17558293 13.92787406 -13.76171875 14.89453125 C-15.40275391 15.86869157 -17.04468985 16.84133599 -18.6875 17.8125 C-19.92983398 18.56563477 -19.92983398 18.56563477 -21.19726562 19.33398438 C-22.00228516 19.80771484 -22.80730469 20.28144531 -23.63671875 20.76953125 C-24.35561279 21.19854736 -25.07450684 21.62756348 -25.81518555 22.06958008 C-28.35531628 23.15131415 -30.26636615 23.17109557 -33 23 C-33.8125 20.8125 -33.8125 20.8125 -34 18 C-29.57779989 12.36542144 -23.09569991 9.1820373 -17 5.625 C-15.91976562 4.97144531 -14.83953125 4.31789062 -13.7265625 3.64453125 C-12.16035156 2.72607422 -12.16035156 2.72607422 -10.5625 1.7890625 C-9.61503906 1.22912598 -8.66757813 0.66918945 -7.69140625 0.09228516 C-4.60610275 -1.15985997 -3.13137824 -0.98104205 0 0 Z " fill="#052727" transform="translate(188,149)"/>
<path d="M0 0 C2.5 0.25 2.5 0.25 4.5 2.25 C4.3640795 5.98781379 4.25664621 8.38526148 1.75 11.25 C-1.0806311 12.50805827 -2.58518324 12.14063845 -5.5 11.25 C-5.38590407 9.79077307 -5.25834456 8.33259402 -5.125 6.875 C-5.05539063 6.06289062 -4.98578125 5.25078125 -4.9140625 4.4140625 C-4.29169147 1.16129316 -3.26945899 0.3269459 0 0 Z " fill="#062727" transform="translate(198.5,137.75)"/>
<path d="M0 0 C2.875 -0.125 2.875 -0.125 6 0 C6.66 0.66 7.32 1.32 8 2 C7.80274374 5.09034807 7.48118402 7.27822397 5.75 9.875 C3.39245761 11.39056296 1.74727982 11.28918735 -1 11 C-1.33 10.67 -1.66 10.34 -2 10 C-1.29411765 2.58823529 -1.29411765 2.58823529 0 0 Z " fill="#052626" transform="translate(195,94)"/>
<path d="M0 0 C0.66 0.66 1.32 1.32 2 2 C1 3 1 3 -1.28515625 3.09765625 C-2.65994141 3.08025391 -2.65994141 3.08025391 -4.0625 3.0625 C-4.98160156 3.05347656 -5.90070313 3.04445312 -6.84765625 3.03515625 C-7.55792969 3.02355469 -8.26820313 3.01195312 -9 3 C-9 2.34 -9 1.68 -9 1 C-5.98675805 -0.50662097 -3.31713623 -0.17770373 0 0 Z " fill="#A3CFD9" transform="translate(151,189)"/>
<path d="M0 0 C1.65 0.33 3.3 0.66 5 1 C5 1.66 5 2.32 5 3 C2.69 3.66 0.38 4.32 -2 5 C-2 4.34 -2 3.68 -2 3 C-1.34 3 -0.68 3 0 3 C0 2.01 0 1.02 0 0 Z " fill="#E3E4E4" transform="translate(63,179)"/>
</svg>
